PathFileType        4      (X/Y/Z)      C:\Users\pc\Desktop\IMUTRC\Sujet_08\Sujet_08_velo_80.trc         
DataRate	CameraRate	NumFrames	NumMarkers	Units	OrigDataRate	OrigDataStartFrame	OrigNumFrames
60.0	60.0	4	64	mm	60.0	1	940
Frame#	Time	pHipOrigin			pRightASI			pLeftASI			pRightCSI			pLeftCSI			pRightIschialTub			pLeftIschialTub			pSacrum			pL5SpinalProcess			pL3SpinalProcess			pT12SpinalProcess			pIJ			pT4SpinalProcess			pT8SpinalProcess			pPX			pC7SpinalProcess			pTopOfHead			pRightAuricularis			pLeftAuricularis			pBackOfHead			pRightAcromion			pLeftAcromion			pRightArmLatEpicondyle			pRightArmMedEpicondyle			pLeftArmLatEpicondyle			pLeftArmMedEpicondyle			pRightUlnarStyloid			pRightRadialStyloid			pRightOlecranon			pLeftUlnarStyloid			pLeftRadialStyloid			pLeftOlecranon			pRightTopOfHand			pRightPinky			pRightBallHand			pLeftTopOfHand			pLeftPinky			pLeftBallHand			pRightGreaterTrochanter			pRightKneeLatEpicondyle			pRightKneeMedEpicondyle			pRightPatella			pLeftGreaterTrochanter			pLeftKneeLatEpicondyle			pLeftKneeMedEpicondyle			pLeftPatella			pRightTibialTub			pRightLatMalleolus			pRightMedMalleolus			pLeftTibialTub			pLeftLatMalleolus			pLeftMedMalleolus			pRightHeelFoot			pRightFirstMetatarsal			pRightFifthMetatarsal			pRightPivotFoot			pRightHeelCenter			pRightToe			pLeftHeelFoot			pLeftFirstMetatarsal			pLeftFifthMetatarsal			pLeftPivotFoot			pLeftHeelCenter			pLeftToe			
		X1	Y1	Z1	X2	Y2	Z2	X3	Y3	Z3	X4	Y4	Z4	X5	Y5	Z5	X6	Y6	Z6	X7	Y7	Z7	X8	Y8	Z8	X9	Y9	Z9	X10	Y10	Z10	X11	Y11	Z11	X12	Y12	Z12	X13	Y13	Z13	X14	Y14	Z14	X15	Y15	Z15	X16	Y16	Z16	X17	Y17	Z17	X18	Y18	Z18	X19	Y19	Z19	X20	Y20	Z20	X21	Y21	Z21	X22	Y22	Z22	X23	Y23	Z23	X24	Y24	Z24	X25	Y25	Z25	X26	Y26	Z26	X27	Y27	Z27	X28	Y28	Z28	X29	Y29	Z29	X30	Y30	Z30	X31	Y31	Z31	X32	Y32	Z32	X33	Y33	Z33	X34	Y34	Z34	X35	Y35	Z35	X36	Y36	Z36	X37	Y37	Z37	X38	Y38	Z38	X39	Y39	Z39	X40	Y40	Z40	X41	Y41	Z41	X42	Y42	Z42	X43	Y43	Z43	X44	Y44	Z44	X45	Y45	Z45	X46	Y46	Z46	X47	Y47	Z47	X48	Y48	Z48	X49	Y49	Z49	X50	Y50	Z50	X51	Y51	Z51	X52	Y52	Z52	X53	Y53	Z53	X54	Y54	Z54	X55	Y55	Z55	X56	Y56	Z56	X57	Y57	Z57	X58	Y58	Z58	X59	Y59	Z59	X60	Y60	Z60	X61	Y61	Z61	X62	Y62	Z62	X63	Y63	Z63	X64	Y64	Z64	
1	0.0	0.0	1249.97582	7.653894434872941E-14	92.84330639348582	1314.12272	135.69865028825578	90.86298023358388	1330.11905	-128.1447088461066	71.14254158645092	1390.87278	117.06769112278725	69.56289734580315	1404.12227	-100.24653553983667	-68.4497895561918	1210.55052	52.6674447547198	-69.23960784629345	1217.17527	-55.989665362654094	-55.95050030643537	1289.5627	2.830608154315269	9.362919317410368	1371.64487	8.700132985222996	80.04435198934364	1462.77548	11.69151184972075	145.2468426633678	1545.82713	13.671270517233639	393.07330570776145	1574.42663	-11.451436625275637	287.73804723050273	1670.88934	10.265424761975812	218.73252750539228	1620.15351	13.320687340723353	301.496101959792	1501.39288	-8.141761679077057	329.71441855659145	1700.78147	10.263050732629145	534.4207475213608	1833.76106	-25.308708010351836	495.407126906138	1750.87099	46.57453395315769	450.8555877226331	1772.52259	-78.55407737042023	436.75964567082366	1795.14366	2.847535371978406	354.6248630465285	1638.25037	156.03389480436445	325.7496416632432	1659.41723	-150.4149759378138	470.85825923473567	1374.87645	135.6573706501263	439.9200471229309	1363.88908	83.54224891022275	423.3124556577573	1389.25699	-167.89644469392087	403.19576497961293	1377.6233	-110.74114400937319	556.5680705196501	1140.10204	136.07235273813694	599.5078729294446	1159.32995	114.30925896681835	433.68519506307103	1362.9196	122.39421711524628	489.50556799998066	1151.41258	-201.78666839181338	536.6593625328879	1171.44838	-209.46748270669312	389.30020257789016	1376.49225	-137.16575360387105	738.57511997408	1054.6267	187.12781905765226	646.7946699701542	1061.41302	171.07264603935752	599.7751350407615	1109.24043	133.09505253657608	627.5763078678924	1059.95881	-329.1298402259076	556.4531185910214	1067.87619	-269.00302175581663	531.3939185344982	1120.55097	-218.5260983314076	28.090102819561423	1233.01002	159.82892526278525	390.5860595122324	1072.4004	142.33620588227086	393.6187700447965	1072.72356	65.57259017548778	406.9010124789975	1112.95675	102.02889648566834	4.577314290537487	1225.25422	-160.04908095046255	218.4000967679946	890.94709	-156.96503632820742	233.47455387516715	894.17867	-81.67088757568737	260.4529381419401	917.9308	-124.63148752464457	410.106361403341	1024.08826	108.51517625431921	124.38816026845775	772.18646	137.06767166766087	130.05274552445618	766.20803	77.27730937882768	278.7748874604588	862.18601	-122.33498629282855	209.81089916046938	486.99937	-143.71235850784663	215.3162060356152	487.48411	-83.40825544722173	42.91844257363399	743.2638	106.46231278869622	146.4897737403748	632.09739	61.961746387507525	147.27144324555675	627.4116	136.44192568428397	161.14212024362052	614.16211	97.03660010712012	70.04717659626183	717.73431	104.5476119943125	214.32542404966412	554.86259	92.7277361750995	150.2149955367185	425.27616	-109.13771757090278	296.0563173576573	373.73243	-75.5623879959164	293.66126609212756	370.82401	-150.13078907388697	314.7585824447227	364.84558	-112.17909604846027	186.0494222221988	415.09668	-109.8643392850245	389.3027916851803	336.56924	-113.53982118094599	
2	0.017	0.0	1249.97582	7.653894434872941E-14	92.69961309322065	1314.93061	135.3671495831903	90.01646150534016	1330.60378	-128.64409468895022	70.5435701200011	1391.5191	116.7760220960138	68.38488434037006	1404.44543	-100.60223574285958	-67.97459555086115	1210.22736	52.8552521595201	-69.11583038517429	1216.69053	-55.88580374068095	-56.054361928408525	1289.23954	2.9543856154344335	8.660092656863505	1371.80645	8.53223375912429	79.01002585629965	1463.26022	11.667320012207757	144.00479971425358	1546.31187	13.894625941514535	391.82697267195977	1575.3961	-9.9661147522901	286.471798355555	1671.53566	11.52310755186905	217.30266949103333	1620.79983	14.019230342458783	300.31379886767144	1502.20078	-7.235495433395322	328.4680855207897	1701.58937	11.748372605614682	533.7890181323435	1834.08422	-22.04211923924035	493.8250095064593	1751.35573	49.46550791466867	450.6193966428068	1773.1689	-76.01023109900154	435.6968376135792	1795.78998	5.119636116214021	352.5718353003306	1638.7351	157.47510257281488	325.06243432727877	1660.54828	-149.0932619716711	468.6416300095711	1375.19961	136.53944505829506	437.8072859476155	1364.37381	84.30053819682789	422.1500684047827	1390.06489	-166.76253936514678	401.6819611824269	1378.26962	-109.69118446342623	554.5392486992857	1140.58678	136.47923314097503	597.3751894871071	1159.81469	114.83991683077555	431.46856583790645	1363.24276	123.27629152341501	487.51657785790843	1152.05889	-200.9245098227907	534.6703647303713	1171.93312	-208.60533056554644	387.9101839022677	1377.30014	-136.01192600807482	736.318651410179	1054.94986	187.5546088717603	644.6619865278169	1061.73618	171.60330390331484	597.7463132203972	1109.56359	133.50193293941416	625.2359011816086	1060.44355	-328.3516274397121	554.34035098783	1068.36093	-268.244724808767	529.1772893093337	1120.87413	-217.64402392323885	29.08459850688172	1233.17159	159.39785302243413	396.2898504963207	1084.19568	138.0524154877799	398.7435118294572	1085.48831	61.22476217687129	411.1550296095809	1125.7215	98.21601000982052	2.444630848200049	1223.96159	-159.5184230865053	205.31231942675203	882.86813	-153.1821241058901	221.17354774473023	886.74603	-78.07150675980338	248.54745623237366	908.88237	-121.75484797588508	417.04791933817654	1037.17616	105.2699956516837	140.14207024547645	776.54909	140.16229386437408	145.68287804035575	769.60119	80.26806995356775	265.06822281362037	853.46074	-119.07138218037699	186.36142438825306	480.69778	-146.93653415382042	191.97058522492762	479.88989	-86.75621498219076	60.142034582859225	743.58696	109.31366372198251	168.78114491842794	637.26792	65.05786857399514	169.43903696249072	632.58213	139.43418624879843	184.01255347685358	619.97896	100.19674457684442	88.3050959710994	719.3501	107.4231688534323	239.61591966532055	563.2647	96.02021776312137	125.64723995561826	419.78247	-112.03468902637468	270.829851685682	365.65347	-79.43392521124204	267.9795286818437	362.74505	-153.96250227136503	289.1806989959676	356.44347	-116.13459313493358	161.33797457340177	408.79509	-113.09279735724134	363.1060221633977	326.87449	-118.01461228896456	
3	0.033	0.0	1249.97582	7.653894434872941E-14	92.55591979295546	1315.73851	135.03564887812482	89.18985095579802	1330.92694	-128.91584787657763	70.04846027552445	1392.16542	116.3605756081212	67.20686490706089	1404.76859	-100.95792828543803	-67.72704062862282	1209.90421	53.062975403466396	-69.09591454602828	1216.04421	-55.658164657588635	-56.28200101150084	1288.91638	2.974301454580446	8.061128850858129	1371.96803	8.240571160226947	77.85192102956815	1463.58337	11.539252464401073	142.76274267681887	1546.95818	14.117982598363769	390.68450125813115	1576.204	-8.60457034042371	285.08177201948814	1672.34355	12.676928719789107	215.9965889377936	1621.60772	14.821634966167395	299.235357397524	1503.00867	-6.453006648832762	327.09797502386886	1702.39726	13.129832856627067	533.1572823154501	1834.40738	-18.775522807684382	492.24289976722514	1751.84047	52.35648830405565	450.2594140135408	1773.81522	-73.57024521698779	434.6340218958902	1796.43629	7.391730432573578	350.291182559361	1639.21984	158.93622494784302	324.2713794576617	1661.67933	-147.64777177697755	466.30121566284294	1375.36119	137.31765141661455	435.5707408833049	1364.85855	84.95497352190426	420.88381952983497	1390.71121	-165.50485657525357	400.3957964683332	1379.07751	-108.66114075662534	552.4065575965038	1140.90994	137.0098845770562	595.3463676667427	1160.13785	115.24679723361363	429.2320131131514	1363.56592	123.93072042061536	485.29994863274385	1152.54363	-200.04243541462193	532.5575971271799	1172.25628	-207.84703361849685	386.52015756620085	1378.26962	-134.85810484015482	734.2898295898148	1055.27302	187.96148927459834	642.6331647074526	1062.05934	172.01018430615292	595.4898523169405	1110.04833	133.9287291813983	622.875578656179	1060.76671	-327.8010537366088	551.9999366411018	1068.84566	-267.4665184504475	527.0645217061422	1121.35887	-216.88572697618926	30.099008800779686	1233.33317	159.19440577685484	401.66214843578797	1096.15253	133.91232482143022	403.66053160273987	1098.41464	57.12450318881364	414.82999877330496	1138.64783	94.33910001816771	0.31194740586259684	1222.50738	-158.987765222548	191.8930401478757	875.11234	-149.25553267162815	208.7686799923202	879.79813	-74.34834848280018	236.3104800456179	900.31867	-118.73452278730488	423.76184585036424	1050.58723	102.04473731607031	156.1236128777114	781.23489	143.23700788238568	161.56055905061754	773.47909	83.4665614326985	251.36155693421364	844.73547	-115.80779215624595	163.1395810386846	474.71936	-150.1806320668163	168.5211104527113	472.78041	-89.98039062816454	77.46949587450204	744.0717	112.04124362202572	190.84488467383323	642.76161	68.17391302750485	191.5027690574516	637.91424	142.55022427443205	206.75920282109138	626.11896	103.25303508504	106.56302177381309	721.12747	110.2987180521077	264.9064165135453	571.82839	99.31271343946376	101.30712469017868	414.28878	-114.95156223267207	245.60338478113835	357.57452	-83.30547651488823	242.17401381044073	354.82768	-157.89807709081626	263.47903931866165	348.20293	-120.19393775505957	136.6265333524808	402.65509	-116.32126308990263	337.01312069146434	317.17975	-122.6131885185467	
4	0.05	0.0	1249.97582	7.653894434872941E-14	92.63986557578261	1316.38482	134.68423233391337	88.59088714979266	1331.08852	-129.207510475475	69.55335809149223	1392.65015	115.9451355481047	66.13269943528044	1404.76859	-101.43740471701176	-67.35570824526533	1209.58105	53.37456026938585	-69.07599870688227	1215.72105	-55.430525574496315	-56.50964009459315	1288.59322	2.994217293726458	7.46215738440832	1371.96803	7.948902133453507	77.25294956311835	1463.90653	11.247583437627643	141.95605439429886	1547.28134	14.073860833384218	389.8536147102221	1576.68873	-7.614358311914844	284.23096963243296	1672.82829	13.4395016652057	215.0860402658688	1622.09246	14.901304750627546	298.34471690430075	1503.49341	-6.145704209156342	326.2670884759598	1702.882	14.12004488513593	533.1288003912496	1834.2458	-16.479230225935765	491.1601758708346	1751.84047	54.40094996519897	450.5026788490917	1773.9768	-72.10055552433684	434.2982451924578	1796.75945	8.797388948975023	348.757462923029	1639.543	159.7585454106976	323.752077775672	1662.48723	-147.02889213182618	464.7276720086633	1375.52277	137.6847001411606	434.10104476277786	1365.18171	85.19824601789955	419.88931741463864	1391.19594	-165.07377667445803	399.29743273116355	1379.40067	-108.10628339471063	550.9169532972753	1141.07152	137.02552441783521	593.8766715462157	1160.46101	115.49006972960892	427.7623246530688	1363.7275	124.17399934448667	483.8501747792389	1152.70521	-199.57153149597883	531.1078168457988	1172.41786	-207.37612203940932	385.5455777180265	1378.59277	-134.19939351671135	732.7162795077589	1055.59618	188.32854565958883	641.1634750148016	1062.3825	172.2534491417038	594.1240178183866	1110.20991	134.0482242162744	621.1981657195817	1060.92829	-327.31023397881967	550.4263929869221	1069.00724	-267.09946972590143	525.4909703915182	1121.68202	-216.51868467951928	31.113420327246004	1233.81791	158.99097261959605	405.93608140551737	1106.81675	130.32707742867473	407.3554089451655	1109.56359	53.47522585237702	417.75802717194694	1149.95836	91.10098551081224	-1.1577422867883485	1221.5379	-158.7445003869972	182.2838508200579	869.94181	-146.35041119866816	199.84240668121106	874.95076	-71.5029886155988	227.46815374990422	894.34025	-116.24056537599444	430.02049296379886	1062.22092	98.85929657042838	172.87630862873795	783.49699	144.63859139004313	178.4370246023188	775.25646	84.97200013445301	240.98979466097927	838.11073	-113.75347307034109	141.48700534492883	471.48778	-152.52981348822192	146.86853475895552	468.57935	-92.32957204957015	95.89958924123697	742.45591	112.95199451614184	213.88747904321144	646.31635	69.36926685311433	214.44150946530107	641.3074	143.86936198903678	230.27699119580024	630.32002	104.63619631544978	126.02744250616033	720.64273	111.23367487205734	291.0719140142143	578.61471	100.80830237690118	78.30864442533559	412.02667	-116.95361076867765	221.69862418229297	351.91925	-86.48982691044604	217.5863359623184	349.49557	-161.02267996893605	238.9952295203886	342.22451	-123.44232575474297	113.50427562651853	399.58508	-118.42717324788136	311.78664735904465	309.74711	-126.48473216174848	
